<svg width="700" height="114" viewBox="0 0 700 114" fill="none" xmlns="http://www.w3.org/2000/svg">
<path d="M47.3761 83.7534C41.3479 83.7534 36.9449 82.3644 34.1669 79.5865C31.389 76.8085 30 72.4055 30 66.3773V47.4178C30 41.3341 31.3751 36.9171 34.1253 34.1669C36.9032 31.4168 41.2924 30.0417 47.2928 30.0417H57.3767C62.4882 30.0417 66.294 31.1112 68.7941 33.2502C71.2943 35.3615 72.6694 38.7644 72.9194 43.4592C73.0027 44.2092 72.8499 44.7787 72.461 45.1676C72.0999 45.5565 71.5582 45.751 70.8359 45.751C69.4469 45.751 68.683 45.0148 68.5441 43.5425C68.3497 40.0979 67.4051 37.7227 65.7106 36.4171C64.016 35.0837 61.2381 34.4169 57.3767 34.4169H47.2928C44.0981 34.4169 41.5563 34.8336 39.6673 35.667C37.7783 36.4726 36.4171 37.8338 35.5837 39.7506C34.7781 41.6396 34.3753 44.1953 34.3753 47.4178V66.3773C34.3753 69.5997 34.792 72.1554 35.6254 74.0445C36.4587 75.9335 37.8199 77.2947 39.7089 78.1281C41.598 78.9614 44.1537 79.3781 47.3761 79.3781H57.3767C61.2381 79.3781 64.016 78.7253 65.7106 77.4197C67.4051 76.0863 68.3497 73.6972 68.5441 70.2526C68.683 68.7802 69.4469 68.0441 70.8359 68.0441C71.5582 68.0441 72.0999 68.2524 72.461 68.6691C72.8499 69.058 73.0027 69.6136 72.9194 70.3359C72.6694 75.0306 71.2943 78.4475 68.7941 80.5865C66.294 82.6978 62.4882 83.7534 57.3767 83.7534H47.3761Z" fill="url(#paint0_linear_2_608)"/>
<path d="M102.8 83.7534C96.7714 83.7534 92.3683 82.3644 89.5904 79.5865C86.8124 76.8085 85.4234 72.4055 85.4234 66.3773V47.3761C85.4234 41.2924 86.8124 36.8754 89.5904 34.1253C92.3683 31.3473 96.7436 29.9861 102.716 30.0417H112.8C118.828 30.0417 123.217 31.4306 125.968 34.2086C128.746 36.9866 130.135 41.3896 130.135 47.4178V66.3773C130.135 72.4055 128.746 76.8085 125.968 79.5865C123.217 82.3644 118.828 83.7534 112.8 83.7534H102.8ZM102.8 79.3781H112.8C115.995 79.3781 118.537 78.9614 120.426 78.1281C122.315 77.2947 123.676 75.9335 124.509 74.0445C125.343 72.1554 125.759 69.5997 125.759 66.3773V47.4178C125.759 44.2231 125.343 41.6813 124.509 39.7923C123.676 37.9033 122.315 36.5421 120.426 35.7087C118.537 34.8475 115.995 34.4169 112.8 34.4169H102.716C99.5216 34.3892 96.9797 34.792 95.0907 35.6254C93.2295 36.431 91.8822 37.7922 91.0488 39.7089C90.2154 41.598 89.7987 44.1537 89.7987 47.3761V66.3773C89.7987 69.5997 90.2154 72.1554 91.0488 74.0445C91.8822 75.9335 93.2434 77.2947 95.1324 78.1281C97.0214 78.9614 99.5771 79.3781 102.8 79.3781Z" fill="url(#paint1_linear_2_608)"/>
<path d="M146.785 83.7534C145.312 83.7534 144.576 83.0172 144.576 81.5449V32.2501C144.576 30.7778 145.312 30.0417 146.785 30.0417C147.84 30.0417 148.674 30.5278 149.285 31.5001L170.036 63.2104L169.036 63.3354L189.787 31.5001C190.371 30.5278 191.246 30.0417 192.413 30.0417C193.718 30.0417 194.371 30.7778 194.371 32.2501V81.5449C194.371 83.0172 193.649 83.7534 192.204 83.7534C190.732 83.7534 189.996 83.0172 189.996 81.5449V36.6254L191.288 37.0421L172.036 66.3773C171.425 67.3218 170.55 67.7941 169.411 67.7941C168.411 67.7941 167.606 67.3218 166.994 66.3773L147.743 37.0421L148.952 37.5005V81.5449C148.952 83.0172 148.229 83.7534 146.785 83.7534Z" fill="url(#paint2_linear_2_608)"/>
<path d="M212.137 83.7534C210.665 83.7534 209.929 83.0172 209.929 81.5449V32.2501C209.929 30.7778 210.665 30.0417 212.137 30.0417C213.582 30.0417 214.304 30.7778 214.304 32.2501V79.3781H239.639C241.111 79.3781 241.847 80.1004 241.847 81.5449C241.847 83.0172 241.111 83.7534 239.639 83.7534H212.137Z" fill="url(#paint3_linear_2_608)"/>
<path d="M253.806 83.7534C253.112 83.7534 252.57 83.5589 252.181 83.17C251.792 82.7811 251.598 82.2394 251.598 81.5449V32.2085C251.598 31.514 251.792 30.9723 252.181 30.5834C252.57 30.1945 253.112 30 253.806 30C254.473 30 255.001 30.1945 255.39 30.5834C255.779 30.9723 255.973 31.514 255.973 32.2085V81.5449C255.973 82.2394 255.779 82.7811 255.39 83.17C255.001 83.5589 254.473 83.7534 253.806 83.7534Z" fill="url(#paint4_linear_2_608)"/>
<path d="M273.746 83.7534C272.274 83.7534 271.537 83.0172 271.537 81.5449V32.2501C271.537 30.7778 272.274 30.0417 273.746 30.0417C274.524 30.0417 275.274 30.4723 275.996 31.3334L311.29 76.6696H310.29V32.2501C310.29 30.7778 311.026 30.0417 312.498 30.0417C313.943 30.0417 314.665 30.7778 314.665 32.2501V81.5449C314.665 83.0172 313.943 83.7534 312.498 83.7534C311.693 83.7534 310.943 83.3228 310.248 82.4617L274.913 37.1255H275.913V81.5449C275.913 83.0172 275.19 83.7534 273.746 83.7534Z" fill="url(#paint5_linear_2_608)"/>
<path d="M332.425 83.7534C330.952 83.7534 330.216 83.0172 330.216 81.5449V32.2501C330.216 30.7778 330.952 30.0417 332.425 30.0417C333.869 30.0417 334.592 30.7778 334.592 32.2501V56.21L359.343 30.8334C360.343 29.8055 361.357 29.7917 362.385 30.7917C363.468 31.7918 363.496 32.8335 362.468 33.9169L343.8 53.0431L365.76 80.2949C366.677 81.4338 366.58 82.4617 365.469 83.3784C364.33 84.2951 363.316 84.1979 362.427 83.0867L340.759 56.21L334.592 62.5021V81.5449C334.592 83.0172 333.869 83.7534 332.425 83.7534Z" fill="url(#paint6_linear_2_608)"/>
<path d="M669.127 73.1972L607.738 73.1972M658.895 30.0001L669.127 39.9687L658.895 49.9372M658.895 83.1658L669.127 73.1972L658.895 63.2286M669.127 39.9687L607.738 39.9687" stroke="#7866BF" stroke-width="4" stroke-linecap="round" stroke-linejoin="round"/>
<path d="M555.472 30.3406L565.572 40.1816L555.472 50.0225M555.472 82.8258L565.572 72.9848L555.472 63.1438" stroke="#7866BF" stroke-width="4" stroke-linecap="round" stroke-linejoin="round"/>
<path d="M504.969 40.1814H515.069C519.534 40.1814 523.816 41.9094 526.973 44.9853C530.13 48.0612 531.904 52.2331 531.904 56.583C531.904 60.933 533.677 65.1048 536.834 68.1807C539.991 71.2566 544.273 72.9847 548.738 72.9847H565.572M565.572 40.1814H548.738C545.098 40.1757 541.554 41.3249 538.644 43.4552M525.17 69.7076C522.257 71.8391 518.712 72.9894 515.069 72.9847H504.969" stroke="#7866BF" stroke-width="4" stroke-linecap="round" stroke-linejoin="round"/>
<path d="M457.04 74.0315H438.853C436.144 74.0313 433.474 73.387 431.072 72.1532C428.669 70.9193 426.603 69.1324 425.05 66.9439L423.318 64.5049C421.764 62.3164 419.698 60.5294 417.296 59.2956C414.893 58.0618 412.224 57.4174 409.514 57.4172H396.382M457.04 40.803H438.86C436.149 40.8029 433.478 41.4477 431.074 42.6827C428.669 43.9178 426.603 45.7066 425.05 47.8973L423.331 50.323C421.778 52.5132 419.712 54.3017 417.309 55.5367C414.905 56.7717 412.235 57.4168 409.524 57.4172H396.382" stroke="#7866BF" stroke-width="4" stroke-linecap="round" stroke-linejoin="round"/>
<path d="M446.93 50.7714L457.04 40.8028L446.93 30.8342M446.93 83.9999L457.04 74.0313L446.93 64.0628" stroke="#7866BF" stroke-width="4" stroke-linecap="round" stroke-linejoin="round"/>
<defs>
<linearGradient id="paint0_linear_2_608" x1="30" y1="30" x2="342.16" y2="148.05" gradientUnits="userSpaceOnUse">
<stop stop-color="#00D789"/>
<stop offset="1" stop-color="#7866BF"/>
<stop offset="1" stop-color="#7957FF"/>
</linearGradient>
<linearGradient id="paint1_linear_2_608" x1="30" y1="30" x2="342.16" y2="148.05" gradientUnits="userSpaceOnUse">
<stop stop-color="#00D789"/>
<stop offset="1" stop-color="#7866BF"/>
<stop offset="1" stop-color="#7957FF"/>
</linearGradient>
<linearGradient id="paint2_linear_2_608" x1="30" y1="30" x2="342.16" y2="148.05" gradientUnits="userSpaceOnUse">
<stop stop-color="#00D789"/>
<stop offset="1" stop-color="#7866BF"/>
<stop offset="1" stop-color="#7957FF"/>
</linearGradient>
<linearGradient id="paint3_linear_2_608" x1="30" y1="30" x2="342.16" y2="148.05" gradientUnits="userSpaceOnUse">
<stop stop-color="#00D789"/>
<stop offset="1" stop-color="#7866BF"/>
<stop offset="1" stop-color="#7957FF"/>
</linearGradient>
<linearGradient id="paint4_linear_2_608" x1="30" y1="30" x2="342.16" y2="148.05" gradientUnits="userSpaceOnUse">
<stop stop-color="#00D789"/>
<stop offset="1" stop-color="#7866BF"/>
<stop offset="1" stop-color="#7957FF"/>
</linearGradient>
<linearGradient id="paint5_linear_2_608" x1="30" y1="30" x2="342.16" y2="148.05" gradientUnits="userSpaceOnUse">
<stop stop-color="#00D789"/>
<stop offset="1" stop-color="#7866BF"/>
<stop offset="1" stop-color="#7957FF"/>
</linearGradient>
<linearGradient id="paint6_linear_2_608" x1="30" y1="30" x2="342.16" y2="148.05" gradientUnits="userSpaceOnUse">
<stop stop-color="#00D789"/>
<stop offset="1" stop-color="#7866BF"/>
<stop offset="1" stop-color="#7957FF"/>
</linearGradient>
</defs>
</svg>
