<svg width="642" height="58" viewBox="0 0 642 58" fill="none" xmlns="http://www.w3.org/2000/svg">
<path d="M17.3761 55.7534C11.3479 55.7534 6.94488 54.3644 4.16693 51.5865C1.38898 48.8085 0 44.4055 0 38.3773V19.4178C0 13.3341 1.37509 8.9171 4.12526 6.16693C6.90322 3.41676 11.2924 2.04167 17.2928 2.04167H27.3767C32.4882 2.04167 36.294 3.11118 38.7941 5.25021C41.2943 7.36145 42.6694 10.7644 42.9194 15.4592C43.0027 16.2092 42.8499 16.7787 42.461 17.1676C42.0999 17.5565 41.5582 17.751 40.8359 17.751C39.4469 17.751 38.683 17.0148 38.5441 15.5425C38.3497 12.0979 37.4051 9.72271 35.7106 8.41708C34.016 7.08366 31.2381 6.41695 27.3767 6.41695H17.2928C14.0981 6.41695 11.5563 6.83364 9.66728 7.66703C7.77827 8.47263 6.41707 9.83383 5.58369 11.7506C4.77808 13.6396 4.37528 16.1953 4.37528 19.4178V38.3773C4.37528 41.5997 4.79197 44.1554 5.62536 46.0445C6.45874 47.9335 7.81994 49.2947 9.70895 50.1281C11.598 50.9614 14.1537 51.3781 17.3761 51.3781H27.3767C31.2381 51.3781 34.016 50.7253 35.7106 49.4197C37.4051 48.0863 38.3497 45.6972 38.5441 42.2526C38.683 40.7802 39.4469 40.0441 40.8359 40.0441C41.5582 40.0441 42.0999 40.2524 42.461 40.6691C42.8499 41.058 43.0027 41.6136 42.9194 42.3359C42.6694 47.0306 41.2943 50.4475 38.7941 52.5865C36.294 54.6978 32.4882 55.7534 27.3767 55.7534H17.3761Z" fill="url(#paint0_linear_2_607)"/>
<path d="M72.7995 55.7534C66.7714 55.7534 62.3683 54.3644 59.5904 51.5865C56.8124 48.8085 55.4234 44.4055 55.4234 38.3773V19.3761C55.4234 13.2924 56.8124 8.87544 59.5904 6.12526C62.3683 3.34731 66.7436 1.98611 72.7162 2.04167H82.8002C88.8283 2.04167 93.2175 3.43065 95.9677 6.2086C98.7456 8.98655 100.135 13.3896 100.135 19.4178V38.3773C100.135 44.4055 98.7456 48.8085 95.9677 51.5865C93.2175 54.3644 88.8283 55.7534 82.8002 55.7534H72.7995ZM72.7995 51.3781H82.8002C85.9948 51.3781 88.5366 50.9614 90.4257 50.1281C92.3147 49.2947 93.6759 47.9335 94.5092 46.0445C95.3426 44.1554 95.7593 41.5997 95.7593 38.3773V19.4178C95.7593 16.2231 95.3426 13.6813 94.5092 11.7923C93.6759 9.90328 92.3147 8.54208 90.4257 7.7087C88.5366 6.84753 85.9948 6.41695 82.8002 6.41695H72.7162C69.5216 6.38917 66.9797 6.79197 65.0907 7.62536C63.2295 8.43096 61.8822 9.79216 61.0488 11.709C60.2154 13.598 59.7987 16.1537 59.7987 19.3761V38.3773C59.7987 41.5997 60.2154 44.1554 61.0488 46.0445C61.8822 47.9335 63.2434 49.2947 65.1324 50.1281C67.0214 50.9614 69.5771 51.3781 72.7995 51.3781Z" fill="url(#paint1_linear_2_607)"/>
<path d="M116.785 55.7534C115.312 55.7534 114.576 55.0173 114.576 53.5449V4.25014C114.576 2.77783 115.312 2.04167 116.785 2.04167C117.84 2.04167 118.674 2.52781 119.285 3.5001L140.036 35.2104L139.036 35.3354L159.787 3.5001C160.371 2.52781 161.246 2.04167 162.413 2.04167C163.718 2.04167 164.371 2.77783 164.371 4.25014V53.5449C164.371 55.0173 163.649 55.7534 162.204 55.7534C160.732 55.7534 159.996 55.0173 159.996 53.5449V8.62542L161.288 9.04211L142.036 38.3773C141.425 39.3218 140.55 39.7941 139.411 39.7941C138.411 39.7941 137.606 39.3218 136.994 38.3773L117.743 9.04211L118.952 9.50048V53.5449C118.952 55.0173 118.229 55.7534 116.785 55.7534Z" fill="url(#paint2_linear_2_607)"/>
<path d="M182.137 55.7534C180.665 55.7534 179.929 55.0173 179.929 53.5449V4.25014C179.929 2.77783 180.665 2.04167 182.137 2.04167C183.582 2.04167 184.304 2.77783 184.304 4.25014V51.3781H209.639C211.111 51.3781 211.847 52.1004 211.847 53.5449C211.847 55.0173 211.111 55.7534 209.639 55.7534H182.137Z" fill="url(#paint3_linear_2_607)"/>
<path d="M223.806 55.7534C223.112 55.7534 222.57 55.5589 222.181 55.17C221.792 54.7811 221.598 54.2394 221.598 53.5449V4.20847C221.598 3.51398 221.792 2.97228 222.181 2.58337C222.57 2.19446 223.112 2 223.806 2C224.473 2 225.001 2.19446 225.39 2.58337C225.779 2.97228 225.973 3.51398 225.973 4.20847V53.5449C225.973 54.2394 225.779 54.7811 225.39 55.17C225.001 55.5589 224.473 55.7534 223.806 55.7534Z" fill="url(#paint4_linear_2_607)"/>
<path d="M243.746 55.7534C242.274 55.7534 241.537 55.0173 241.537 53.5449V4.25014C241.537 2.77783 242.274 2.04167 243.746 2.04167C244.524 2.04167 245.274 2.47225 245.996 3.33342L281.29 48.6696H280.29V4.25014C280.29 2.77783 281.026 2.04167 282.498 2.04167C283.943 2.04167 284.665 2.77783 284.665 4.25014V53.5449C284.665 55.0173 283.943 55.7534 282.498 55.7534C281.693 55.7534 280.943 55.3228 280.248 54.4617L244.913 9.12545H245.913V53.5449C245.913 55.0173 245.19 55.7534 243.746 55.7534Z" fill="url(#paint5_linear_2_607)"/>
<path d="M302.425 55.7534C300.952 55.7534 300.216 55.0173 300.216 53.5449V4.25014C300.216 2.77783 300.952 2.04167 302.425 2.04167C303.869 2.04167 304.592 2.77783 304.592 4.25014V28.21L329.343 2.83338C330.343 1.80554 331.357 1.79166 332.385 2.79172C333.468 3.79178 333.496 4.83351 332.468 5.91691L313.8 25.0431L335.76 52.2949C336.677 53.4338 336.58 54.4617 335.469 55.3784C334.33 56.2951 333.316 56.1979 332.427 55.0867L310.759 28.21L304.592 34.5021V53.5449C304.592 55.0173 303.869 55.7534 302.425 55.7534Z" fill="url(#paint6_linear_2_607)"/>
<path d="M639.127 45.1972L577.738 45.1972M628.895 2.00011L639.127 11.9687L628.895 21.9372M628.895 55.1658L639.127 45.1972L628.895 35.2286M639.127 11.9687L577.738 11.9687" stroke="#7866BF" stroke-width="4" stroke-linecap="round" stroke-linejoin="round"/>
<path d="M525.472 2.34058L535.572 12.1816L525.472 22.0225M525.472 54.8258L535.572 44.9848L525.472 35.1438" stroke="#7866BF" stroke-width="4" stroke-linecap="round" stroke-linejoin="round"/>
<path d="M474.969 12.1814H485.069C489.534 12.1814 493.816 13.9094 496.973 16.9853C500.13 20.0612 501.904 24.2331 501.904 28.583C501.904 32.933 503.677 37.1048 506.834 40.1807C509.991 43.2566 514.273 44.9847 518.738 44.9847H535.572M535.572 12.1814H518.738C515.098 12.1757 511.554 13.3249 508.644 15.4552M495.17 41.7076C492.257 43.8391 488.712 44.9894 485.069 44.9847H474.969" stroke="#7866BF" stroke-width="4" stroke-linecap="round" stroke-linejoin="round"/>
<path d="M427.04 46.0314H408.853C406.144 46.0312 403.474 45.3869 401.072 44.153C398.669 42.9192 396.603 41.1323 395.05 38.9437L393.318 36.5048C391.764 34.3162 389.698 32.5293 387.296 31.2955C384.893 30.0617 382.224 29.4173 379.514 29.4171H366.382M427.04 12.8029H408.86C406.149 12.8027 403.478 13.4476 401.074 14.6826C398.669 15.9177 396.603 17.7065 395.05 19.8972L393.331 22.3228C391.778 24.5131 389.712 26.3016 387.309 27.5366C384.905 28.7716 382.235 29.4167 379.524 29.4171H366.382" stroke="#7866BF" stroke-width="4" stroke-linecap="round" stroke-linejoin="round"/>
<path d="M416.93 22.7714L427.04 12.8028L416.93 2.83423M416.93 55.9999L427.04 46.0313L416.93 36.0628" stroke="#7866BF" stroke-width="4" stroke-linecap="round" stroke-linejoin="round"/>
<defs>
<linearGradient id="paint0_linear_2_607" x1="0" y1="2" x2="312.16" y2="120.05" gradientUnits="userSpaceOnUse">
<stop stop-color="#00D789"/>
<stop offset="1" stop-color="#7866BF"/>
<stop offset="1" stop-color="#7957FF"/>
</linearGradient>
<linearGradient id="paint1_linear_2_607" x1="0" y1="2" x2="312.16" y2="120.05" gradientUnits="userSpaceOnUse">
<stop stop-color="#00D789"/>
<stop offset="1" stop-color="#7866BF"/>
<stop offset="1" stop-color="#7957FF"/>
</linearGradient>
<linearGradient id="paint2_linear_2_607" x1="0" y1="2" x2="312.16" y2="120.05" gradientUnits="userSpaceOnUse">
<stop stop-color="#00D789"/>
<stop offset="1" stop-color="#7866BF"/>
<stop offset="1" stop-color="#7957FF"/>
</linearGradient>
<linearGradient id="paint3_linear_2_607" x1="0" y1="2" x2="312.16" y2="120.05" gradientUnits="userSpaceOnUse">
<stop stop-color="#00D789"/>
<stop offset="1" stop-color="#7866BF"/>
<stop offset="1" stop-color="#7957FF"/>
</linearGradient>
<linearGradient id="paint4_linear_2_607" x1="0" y1="2" x2="312.16" y2="120.05" gradientUnits="userSpaceOnUse">
<stop stop-color="#00D789"/>
<stop offset="1" stop-color="#7866BF"/>
<stop offset="1" stop-color="#7957FF"/>
</linearGradient>
<linearGradient id="paint5_linear_2_607" x1="0" y1="2" x2="312.16" y2="120.05" gradientUnits="userSpaceOnUse">
<stop stop-color="#00D789"/>
<stop offset="1" stop-color="#7866BF"/>
<stop offset="1" stop-color="#7957FF"/>
</linearGradient>
<linearGradient id="paint6_linear_2_607" x1="0" y1="2" x2="312.16" y2="120.05" gradientUnits="userSpaceOnUse">
<stop stop-color="#00D789"/>
<stop offset="1" stop-color="#7866BF"/>
<stop offset="1" stop-color="#7957FF"/>
</linearGradient>
</defs>
</svg>
